# Blender v2.79 (sub 0) OBJ File: 'modelsFlyGame.blend'
# www.blender.org
mtllib explode.mtl
o Icosphere
v 0.000000 -1.410604 0.000000
v 1.923864 -1.189028 1.397752
v -0.352781 -0.570831 1.085767
v -0.913237 -0.456621 0.000000
v -0.329031 -0.532402 -1.012672
v 1.690065 -1.044531 -1.227890
v 0.440497 0.712762 1.355732
v -1.748294 1.080518 1.270195
v -0.777163 0.480319 -0.564635
v 0.287697 0.465519 -0.885455
v 0.996836 0.498421 0.000000
v 0.000000 1.023767 0.000000
v -0.207722 -1.087679 0.639313
v 0.514204 -1.028418 0.373587
v 0.441347 -0.882694 1.358301
v 0.987489 -0.610310 0.000000
v 0.503991 -1.007993 -0.366167
v -0.673140 -1.089167 0.000000
v -1.345449 -1.027844 0.977522
v -0.183279 -0.959691 -0.564085
v -1.269251 -0.969633 -0.922161
v 0.285210 -0.570421 -0.877770
v 1.204903 0.000000 0.391491
v 1.025944 0.000000 -0.333344
v 0.000000 0.000000 2.294394
v 0.842250 0.000000 1.159256
v -1.023007 0.000000 0.332390
v -0.809883 0.000000 1.114708
v -0.592179 0.000000 -0.815064
v -0.838185 0.000000 -0.272339
v 0.594323 0.000000 -0.818014
v 0.000000 0.000000 -2.231180
v 1.586758 1.212189 1.152842
v -0.279186 0.558372 0.859231
v -0.863205 0.533497 0.000000
v -0.279238 0.558477 -0.859391
v 1.881513 1.437365 -1.366994
v 0.183428 0.960470 0.564543
v 0.545572 0.882757 0.000000
v -0.478298 0.956606 0.347500
v -0.934363 1.868746 -0.678847
v 0.128963 0.675282 -0.396915
vt 0.258789 0.500100
vt 0.391160 0.510698
vt 0.304173 0.600467
vt 0.066498 0.165654
vt 0.141864 0.056316
vt 0.176111 0.176534
vt 0.205538 0.596526
vt 0.125994 0.500100
vt 0.262039 0.000100
vt 0.377345 0.065728
vt 0.257493 0.113839
vt 0.123380 0.259985
vt 0.323709 0.679230
vt 0.399159 0.639598
vt 0.377472 0.740015
vt 0.179779 0.673478
vt 0.251904 0.672334
vt 0.209708 0.739111
vt 0.011505 0.567143
vt 0.107733 0.627951
vt 0.000100 0.699328
vt 0.254089 0.198997
vt 0.333611 0.182829
vt 0.291143 0.260889
vt 0.000100 0.280661
vt 0.288636 0.742266
vt 0.121337 0.729778
vt 0.443744 0.180732
vt 0.500752 0.300672
vt 0.379515 0.270222
vt 0.212214 0.257734
vt 0.000919 0.413335
vt 0.101693 0.360401
vt 0.109692 0.489302
vt 0.246761 0.801003
vt 0.324739 0.823466
vt 0.243358 0.886161
vt 0.057108 0.819268
vt 0.167239 0.817171
vt 0.123507 0.934272
vt 0.321073 0.326523
vt 0.393119 0.372050
vt 0.295313 0.403475
vt 0.177143 0.320769
vt 0.248947 0.327666
vt 0.196678 0.399532
vt 0.242063 0.499900
vt 0.374858 0.499900
vt 0.489347 0.432857
vt 0.238812 0.999900
vt 0.358987 0.943684
vt 0.434353 0.834346
vt 0.500751 0.719339
vt 0.499933 0.586665
vn 0.2522 -0.8283 0.5003
vn 0.2910 -0.7993 -0.5259
vn -0.4109 -0.8605 0.3011
vn -0.3725 -0.7801 -0.5026
vn 0.1328 -0.7527 -0.6448
vn 0.8390 0.0487 -0.5419
vn -0.4588 -0.7442 0.4854
vn -0.9244 0.0528 -0.3778
vn -0.2069 0.2489 -0.9462
vn -0.1745 0.1956 -0.9650
vn 0.6694 0.6723 0.3162
vn -0.6789 -0.5673 0.4661
vn -0.9562 -0.0171 -0.2922
vn -0.8805 -0.2985 -0.3682
vn 0.5165 0.7223 -0.4599
vn -0.3137 0.8723 0.3750
vn 0.4086 0.7905 0.4562
vn -0.9828 -0.1226 -0.1382
vn 0.1355 0.9256 -0.3534
vn 0.4718 0.5540 0.6859
vn 0.1984 0.7676 -0.6095
vn -0.4161 0.9085 -0.0381
vn -0.5584 0.6810 -0.4738
vn 0.7483 0.5998 -0.2834
vn 0.6315 0.4067 -0.6601
vn -0.4905 -0.1265 -0.8622
vn 0.2962 0.7755 0.5576
vn -0.7848 0.2471 0.5684
vn -0.3316 0.7603 -0.5585
vn -0.0473 0.9908 0.1264
vn -0.2177 0.7274 0.6508
vn -0.4455 0.8029 0.3961
vn 0.2501 0.9678 0.0272
vn -0.0936 0.9764 -0.1945
vn 0.5055 0.5936 -0.6262
vn 0.8813 -0.2261 0.4150
vn 0.5488 -0.6782 -0.4888
vn -0.1465 -0.2357 -0.9607
vn 0.1359 0.9269 -0.3497
vn -0.8297 0.4374 -0.3469
vn -0.5222 0.2274 -0.8219
vn -0.9876 0.0320 -0.1535
vn -0.9512 0.1038 -0.2907
vn -0.8347 -0.0886 -0.5435
vn 0.3111 0.1348 0.9408
vn -0.5707 0.7217 0.3918
vn -0.4468 0.8010 0.3985
vn 0.2299 -0.1361 0.9637
vn 0.7912 -0.4840 0.3737
vn 0.8878 0.0093 -0.4601
vn 0.8074 0.4826 -0.3395
vn 0.8378 -0.4171 -0.3523
vn 0.0295 -0.9189 -0.3935
vn -0.9025 -0.1343 -0.4091
vn -0.7526 0.5632 -0.3411
vn -0.9379 0.2779 0.2075
vn -0.7258 -0.6588 0.1977
vn -0.8740 0.4236 0.2381
vn -0.0622 -0.1001 0.9930
vn 0.7716 0.2771 0.5725
vn 0.7826 -0.2245 0.5807
vn 0.0178 0.2122 0.9771
vn 0.9488 0.2121 -0.2342
vn 0.9534 -0.1886 -0.2354
vn 0.8798 0.1840 0.4383
vn -0.3862 -0.7761 -0.4986
vn 0.1446 -0.7206 -0.6781
vn 0.1112 -0.7013 -0.7041
vn 0.2399 -0.6628 -0.7093
vn 0.0649 -0.9834 -0.1694
vn -0.8163 -0.3098 0.4875
vn -0.7943 -0.3015 -0.5274
vn -0.0426 -0.9985 0.0333
vn 0.1965 -0.6088 0.7686
vn 0.3181 -0.8219 0.4726
vn 0.6484 -0.7607 -0.0300
vn 0.6103 -0.7916 -0.0303
vn -0.4623 -0.6504 0.6027
vn 0.1373 -0.9783 0.1549
vn -0.2040 -0.9705 0.1285
usemtl Material.002
s off
f 1/1/1 14/2/1 13/3/1
f 2/4/2 14/5/2 16/6/2
f 1/1/3 13/3/3 18/7/3
f 1/1/4 18/7/4 20/8/4
f 1/9/5 20/10/5 17/11/5
f 2/4/6 16/6/6 23/12/6
f 3/13/7 15/14/7 25/15/7
f 4/16/8 19/17/8 27/18/8
f 5/19/9 21/20/9 29/21/9
f 6/22/10 22/23/10 31/24/10
f 2/4/11 23/12/11 26/25/11
f 3/13/12 25/15/12 28/26/12
f 4/16/13 27/18/13 30/27/13
f 5/28/14 29/29/14 32/30/14
f 6/22/15 31/24/15 24/31/15
f 7/32/16 33/33/16 38/34/16
f 8/35/17 34/36/17 40/37/17
f 9/38/18 35/39/18 41/40/18
f 10/41/19 36/42/19 42/43/19
f 11/44/20 37/45/20 39/46/20
f 39/46/21 42/43/21 12/47/21
f 39/46/22 37/45/22 42/43/22
f 37/45/23 10/41/23 42/43/23
f 42/43/24 41/48/24 12/47/24
f 42/43/25 36/42/25 41/48/25
f 36/42/26 9/49/26 41/48/26
f 41/40/27 40/37/27 12/50/27
f 41/40/28 35/39/28 40/37/28
f 35/39/29 8/35/29 40/37/29
f 40/37/30 38/51/30 12/50/30
f 40/37/31 34/36/31 38/51/31
f 34/36/32 7/52/32 38/51/32
f 38/34/33 39/46/33 12/47/33
f 38/34/34 33/33/34 39/46/34
f 33/33/35 11/44/35 39/46/35
f 24/31/36 37/45/36 11/44/36
f 24/31/37 31/24/37 37/45/37
f 31/24/38 10/41/38 37/45/38
f 32/30/39 36/42/39 10/41/39
f 32/30/40 29/29/40 36/42/40
f 29/29/41 9/49/41 36/42/41
f 30/27/42 35/39/42 9/38/42
f 30/27/43 27/18/43 35/39/43
f 27/18/44 8/35/44 35/39/44
f 28/26/45 34/36/45 8/35/45
f 28/26/46 25/15/46 34/36/46
f 25/15/47 7/52/47 34/36/47
f 26/25/48 33/33/48 7/32/48
f 26/25/49 23/12/49 33/33/49
f 23/12/50 11/44/50 33/33/50
f 31/24/51 32/30/51 10/41/51
f 31/24/52 22/23/52 32/30/52
f 22/23/53 5/28/53 32/30/53
f 29/21/54 30/27/54 9/38/54
f 29/21/55 21/20/55 30/27/55
f 21/20/56 4/16/56 30/27/56
f 27/18/57 28/26/57 8/35/57
f 27/18/58 19/17/58 28/26/58
f 19/17/59 3/13/59 28/26/59
f 25/15/60 26/53/60 7/52/60
f 25/15/61 15/14/61 26/53/61
f 15/14/62 2/54/62 26/53/62
f 23/12/63 24/31/63 11/44/63
f 23/12/64 16/6/64 24/31/64
f 16/6/65 6/22/65 24/31/65
f 17/11/66 22/23/66 6/22/66
f 17/11/67 20/10/67 22/23/67
f 20/10/68 5/28/68 22/23/68
f 20/8/69 21/20/69 5/19/69
f 20/8/70 18/7/70 21/20/70
f 18/7/71 4/16/71 21/20/71
f 18/7/72 19/17/72 4/16/72
f 18/7/73 13/3/73 19/17/73
f 13/3/74 3/13/74 19/17/74
f 16/6/75 17/11/75 6/22/75
f 16/6/76 14/5/76 17/11/76
f 14/5/77 1/9/77 17/11/77
f 13/3/78 15/14/78 3/13/78
f 13/3/79 14/2/79 15/14/79
f 14/2/80 2/54/80 15/14/80
